<svg width="20" height="20" fill="none" xmlns="http://www.w3.org/2000/svg"><path d="M10 20c5.523 0 10-4.477 10-10S15.523 0 10 0 0 4.477 0 10s4.477 10 10 10z" fill="#088972"/><path fill-rule="evenodd" clip-rule="evenodd" d="M16.42 3.905a.59.59 0 00-.765-.284 9.408 9.408 0 00-1.753 1.1c-.176.14-.347.289-.513.444a7.226 7.226 0 00-.674-.803 5.633 5.633 0 00-1.188-.94 4.026 4.026 0 00-1.515-.531 3.495 3.495 0 00-1.643.19 4.492 4.492 0 00-1.353.802 6.36 6.36 0 00-1.013 1.095 8.977 8.977 0 00-1.285 2.567 9.828 9.828 0 00-.473 2.805c-.017.954.117 1.934.475 2.864a5.588 5.588 0 001.21 1.909 5.284 5.284 0 001.23.932c.227.124.464.233.708.32.121.046.246.08.37.12.126.031.25.066.378.09a5.521 5.521 0 002.303-.024 5.266 5.266 0 001.445-.56c.45-.258.86-.584 1.21-.96s.642-.8.87-1.249v-.002l.002-.001a.678.678 0 00-.312-.916.698.698 0 00-.93.307 3.915 3.915 0 01-1.536 1.64 3.966 3.966 0 01-2.203.501 3.831 3.831 0 01-2.536-1.144 4.411 4.411 0 01-.37-.436 4.594 4.594 0 01-.554-1.015c-.284-.73-.405-1.538-.392-2.355.011-.816.15-1.64.4-2.426a7.667 7.667 0 011.081-2.19c.238-.323.503-.621.796-.87.292-.25.612-.447.943-.57a2.14 2.14 0 011.011-.123 2.69 2.69 0 011.01.356c.326.188.633.435.91.718.27.273.513.58.73.906-1.672 2.089-1.793 5.535.803 5.554 2.435-.109 1.543-3.348 1.478-3.598a9.107 9.107 0 00-.285-.899c-.108.129-.614.745-.936 1.383.134.517.416 1.764-.327 1.837-.601.027-.69-.79-.63-1.284.12-1.006.556-1.706.57-1.729.304-.527.881-1.2.881-1.2.196-.208.406-.406.629-.59a9.32 9.32 0 011.02-.727c.156-.095.319-.185.482-.272.26-.15.37-.469.24-.742z" fill="#fff"/><path fill-rule="evenodd" clip-rule="evenodd" d="M14.048 6.236c-.027.03-.528.594-.882 1.2.138.33.254.668.345 1.012l.043.164c.322-.638.828-1.254.936-1.383a9.027 9.027 0 00-.442-.993z" fill="#99E1D5"/></svg>